<svg id="Layer_1" data-name="Layer 1" xmlns="http://www.w3.org/2000/svg" viewBox="0 0 1600 5120"><defs><style>.cls-11,.cls-3,.cls-5,.cls-8,.cls-9{fill:#01a0c6}.cls-2,.cls-7{fill:#006b84}.cls-7,.cls-9{stroke:#01a0c6}.cls-5{stroke-width:10.84px}.cls-11,.cls-5,.cls-8{stroke:#006b84}.cls-7,.cls-8,.cls-9{stroke-width:4.33px}.cls-11{stroke-width:8.1px}</style></defs><path stroke="#231f20" stroke-miterlimit="10" fill="#01a0c6" d="M0 0h1600v5120H0z"/><path class="cls-2" d="M54 295.86c118.11 244.31 108.16 230.82 128.6 275.32-6.6-2.62-31.22-19.95-34.85-26.81-7.63-14.62-20.3-39.09-38.72-82.75L-57.27 451l-150.1 227.09L94.7 1332.14s264.5 28.78 259.74 17.21c3.54-5.63 142.44-208.07 187-279.65 7.87 41.3 2 79.84-18.29 108.63-7.89 11.22-10.9 15.48 14.64 70.17 12.3 26.37 33 68.25 61.25 124.49l268.14 22.58 413.07-599.1-134.66-256.9-344.19 8.56s8.05-6.67 34-19.22c30.86-15 129.58-1.11 129.58-1.11l93.28-145.8L951 128.48l-740.21-64L54 295.86m185-172.51c30.81 2.7 649.1 56.21 679.56 58.84 3.87 8.47 18 39.31 18 39.31s1.93-2.87 2.3-3.37l70.71 162c-11.3 17.12-45.83 69.15-61.51 92.81a204.27 204.27 0 00-32.26-7c-49.45-6.74-103.54 16.37-148.38 63.45L727.85 571l416 42.49c10.63 23.73 71.34 159 81.76 182.23-.65.91-1.91 2.72-1.91 2.72s1.2 2.76 2.2 5c-17 23.85-225.52 316.85-225.52 316.85l-86.22 124.34s-56.36 85.43-67.86 102.83c-15.29-1.31-179.52-15.28-205.74-17.55-20.1-40.26-40.48-82-53.52-109.87-4.36-9.32-7.71-16.78-10.14-22.38 32.55-56.66 32.42-132-1.9-205.46-.13-.17-22.27-47.38-22.27-47.38s-203.53 327.46-219.66 353.44c-10.35-.63-37.18-2.2-37.18-2.2s1.08 2.72 1.3 3.18c-52.33-4-139.3-10.57-161.35-12.23-12.88-27.92-266.76-577.47-279-604 14-21.24 100.71-152.35 115.09-174.09 23.3 1.21 103 5.48 120.8 6.42 10.47 20.77 43.69 86.37 43.69 86.37l5.45 4c28.86 21.1 65.32 33.87 108.32 37.93l48.64 4.6S151.24 327.67 139.1 301.32c7.31-10.77 21.16-31 21.16-31s-9.87-.81-18.89-1.59c31.22-46.54 85.03-126.62 97.63-145.38z"/><path class="cls-2" d="M-43.23 483l149.39 2.45 106.76 211.08 53.55-44.46-164-356.21 135-198 695.39 54.89 91.77 223.42L746 542.24l412.4 42.15L1253.59 804l-404 567.8-213.72-19.11L579 946.16l-235.23 378.39-230.86-13.46-287.35-638.59z"/><path class="cls-3" d="M858.37 1370.75l378.21-573.49-90.26-204.68-81.76 80a376.13 376.13 0 013.94 100.06c-13.84 149.52-109.61 262.94-214 253.29S684.83 878.35 698.64 728.79s118.82-256.26 205.85-244.38c16.52 2.23 32.39 6.07 47.16 13.24L1034 373.48 932.91 152.79 220.53 91.17 86.91 290l108.22 9a375.87 375.87 0 0184.16-54.2c135.88-64 288.19-41.61 326.93 55.77 34.48 86.79-26.05 209-161.91 273s-285.39 53.67-330-41.17a135.18 135.18 0 01-12.53-47.36l-148.79-7.86-132.67 200.62 287.87 635.5 230.12 19.37S286.23 1205.58 280.1 1203c-23.86-10.11-47.49-21.54-69.84-38.21-108.84-81.41-169.17-213-108.77-298.71s211.85-78.84 334.64 7.69 166 232.32 105.6 318c-3 4.25 76.3 162.06 76.3 162.06l230.34 19.65z"/><path class="cls-2" d="M280.1 1203l198-307.26M1061.87 677l-359.11-46.15"/><path d="M1142.39 571.7l-74.71 107.58a375.31 375.31 0 013.94 100.05c-13.81 149.57-109.61 262.95-214 253.34S688 885 701.77 735.46 820.58 479.2 907.61 491.09c16.54 2.27 32.4 6.07 47.18 13.28l79.64-119.72-97-222.24-402.28 568.06 315.57 636.61 402.66-571.18z" stroke-width="10.84" stroke="#01a0c6" fill="#006b84"/><path class="cls-5" d="M296.34 269.17a369.72 369.72 0 00-74 46.19l131.03 280.57a434.3 434.3 0 0091.71-31.37C573.17 504.21 631.82 392.4 601 314.27c-34.56-87.68-176.58-105.45-304.66-45.1zM274.78 1175.81l172.37-265.23c-10.76-18.39-12.58-19.5-34-33.5-113.41-73.66-248.41-74.74-297.8 4.49s10.7 195.65 111.5 265.26c17.32 11.93 35.32 20.53 47.93 28.98z"/><path d="M1039.78 689.9L711.7 671.75a320.81 320.81 0 00-15.05 98c.19 140.67 73.35 263.25 171.81 262.48s199.23-195.83 171.32-342.33z" stroke-width="10.84" stroke="#01a0c6" fill="#01a0c6"/><path class="cls-2" d="M532.68 732.91l-66.9-5.22 1 1.39zM1673.8 1718.32c-61.91 88.9-59.17 82.8-70.65 98.62-.38-2.81.83-14.77 2.51-17.37 3.59-5.52 9.63-14.72 21.22-29.67L1598 1710l-108.4-7.8-168.51 233.11s41.74 97.68 44.84 93.76c2.65.13 100.28 8.86 133.91 10.35-12.83 10.83-27.4 16.31-41.38 14.9-5.45-.55-7.52-.77-21.56 18.82-6.77 9.44-17.29 24.85-31.34 45.68l44.62 97.74 289.36 26.44 63-97.14-70.33-118.11s3.89 1.5 13.34 8.07c11.25 7.8 25.74 44.88 25.74 44.88l69 3.94 67.24-87L1785 1727.59l-111.21-9.27m96.23 30.62c5.09 11.25 107.46 236.89 112.5 248-2.19 3-10.15 14-10.15 14l1.62.14-42.54 56.32-44.33-3.25a82.2 82.2 0 00-3.89-12.59c-7.33-18.53-26-32.83-51.12-39.23l-22.2-5.65s61.87 142.18 66.62 153.08c-6.18 8.35-41.36 55.94-47.42 64.12l-1.32-.13s-.73 1-1.31 1.74L1572.09 2209l-60.15-5.68-49.06-3.49c-2.54-5.58-29.81-65.47-34.16-75 10.08-14.87 20.63-30.14 27.77-40.12q3.59-5 5.8-7.91c26.08.25 52.27-14.53 71.13-40.84 0-.08 12.13-17 12.13-17l-166-7.28c-1.8-3.73-6.51-13.37-6.51-13.37l-.85 1.07c-8.85-19-23.58-50.54-27.32-58.54 7.2-10 148.77-205.84 155.61-215.31 10.13.71 72.73 5.23 83.11 6l21.4 43.3c-5.18 7.71-21.51 32.1-21.51 32.1l-.34 2.69c-1.69 14.17 1 29.36 8 45.12l7.92 17.83s82.69-114.09 89.48-123.47c5.18.43 14.94 1.28 14.94 1.28s-1.65-3.59-3.14-6.88z"/><path class="cls-2" d="M1589.64 1721.1l28.38 52.46-52.57 78.44 26 9.94 91.88-126.77 95.31 8.25 117 252.75-59.79 75.66-112.31-64.49 66 151.77-57.82 76.1-276.72-29.48-35.17-78.11 130.36-99.35-177.71-7.81-40.49-83 166-225z"/><path class="cls-3" d="M1457.12 2208.58l273.59 19.4 53.57-71.46-43.85-12.8a149.35 149.35 0 01-34 21c-54.74 24.45-113 13.31-130-24.91s18.17-87.93 72.93-112.39 112.43-8.79 125.32 23.82a61.25 61.25 0 014.62 19l59.34 4.37 57-78.37-118-260-95.35-7.59 18 39.43a150.17 150.17 0 0135.33 18.68c48.86 34.76 70.87 92.15 44.56 124.69-23.45 29-77.82 31.83-126.69-2.92s-74.53-88.82-50.26-122.92a53.94 53.94 0 0114-13.63l-26.38-53.32-95.75-6.9-164.83 224.54 38.28 83.87s34-43 33.75-45.63c-1.15-10.29-1.79-20.75-.37-31.79 7-53.81 41-100.55 82.68-96.3s68.89 58.3 62.8 118-48.37 103.23-90 99c-2.06-.2-41.47 58.27-41.47 58.27l38.24 84z"/><path class="cls-2" d="M1402.35 1974.51l145.68 8.78"/><path class="cls-7" d="M1790.78 2151.06l-52.06-4.94a149.92 149.92 0 01-34 21c-54.75 24.46-113 13.3-130-24.9s18.18-87.94 72.94-112.4 112.43-8.8 125.32 23.81a61.35 61.35 0 014.61 19l57.25 4.29 58.37-77.24-276.42-28.84-159.89 234.36 277.57 28.36z"/><path class="cls-8" d="M1410.76 1967.34l126 8.09c4.29-7.35 4.32-8.2 5-18.41 3.45-53.88-22.59-101.08-59.83-102.76s-66 42-70.5 90.71c-.72 8.38-.19 16.33-.67 22.37z"/><path class="cls-9" d="M1729.57 2138.49l-57.89-117.73a127.78 127.78 0 00-37.06 14c-48.91 27.58-77.23 77-57.71 111.14s107.09 30.97 152.66-7.41z"/><path class="cls-2" d="M159.49 2142.26c-61.91 88.91-59.17 82.8-70.65 98.62-.38-2.8.83-14.76 2.51-17.37 3.59-5.52 9.63-14.71 21.22-29.67l-28.85-60-108.4-7.8-168.51 233.16s41.75 97.68 44.84 93.76c2.65.13 100.29 8.86 133.92 10.36-12.84 10.82-27.41 16.3-41.39 14.89-5.45-.55-7.52-.76-21.55 18.83-6.77 9.44-17.3 24.84-31.34 45.67l44.61 97.74L225.23 2667l63-97.13L218 2451.73s3.9 1.49 13.34 8.06c11.26 7.8 25.74 44.88 25.74 44.88l69 3.94 67.24-86.94-122.62-270.14-111.21-9.27m96.24 30.62c5.09 11.25 107.45 236.9 112.5 248l-10.16 14 1.63.15c-14 18.54-37.51 49.64-42.55 56.31-8.17-.58-33-2.42-44.33-3.25a83.58 83.58 0 00-3.88-12.59c-7.34-18.53-26-32.83-51.12-39.23l-22.2-5.64 66.61 153.08c-6.18 8.34-41.36 55.93-47.42 64.11l-1.32-.13s-.73 1-1.31 1.74l-154.4-16.48-60.14-5.68-49.07-3.49c-2.54-5.58-29.81-65.46-34.15-75 10.08-14.88 20.62-30.14 27.76-40.13q3.59-5 5.81-7.91c26.08.26 52.26-14.53 71.12-40.83 0-.08 12.13-17 12.13-17l-166-7.29-6.51-13.37s-.74.91-.86 1.08c-8.85-19-23.57-50.55-27.31-58.55l155.61-215.31c10.13.72 72.72 5.24 83.1 6 4.14 8.34 18.25 36.92 21.41 43.29-5.19 7.71-21.51 32.11-21.51 32.11l-.34 2.68c-1.7 14.18 1 29.37 8 45.13l7.92 17.82s82.69-114.09 89.48-123.47l14.95 1.29s-1.66-3.6-3.15-6.89z"/><path class="cls-2" d="M75.33 2145l28.38 52.47L51.15 2276l25.95 9.93 91.9-126.8 95.31 8.25 117 252.75-59.8 75.66-112.3-64.49 66 151.77-57.82 76.1-276.66-29.5-35.17-78.11 130.36-99.35-177.72-7.81-40.49-83 166-225z"/><path class="cls-3" d="M-57.18 2632.53l273.59 19.4 53.59-71.47-43.84-12.79a150.49 150.49 0 01-34 20.95c-54.75 24.44-113 13.3-130-24.92s18.17-87.92 72.92-112.38 112.44-8.8 125.33 23.81a61.88 61.88 0 014.62 19l59.33 4.37 57-78.38-118-260-95.36-7.56 18 39.44a150.34 150.34 0 0135.33 18.68c48.86 34.77 70.88 92.16 44.57 124.69-23.46 29-77.82 31.83-126.7-2.92s-74.52-88.82-50.26-122.92a53.9 53.9 0 0114-13.62l-26.34-53.33-95.76-6.91L-184 2360.21l38.29 83.88s34-43 33.75-45.64c-1.15-10.28-1.8-20.75-.37-31.78 7-53.81 41-100.56 82.67-96.31s68.89 58.3 62.81 118-48.37 103.23-90 99c-2.06-.2-41.47 58.27-41.47 58.27l38.23 84z"/><path class="cls-2" d="M-111.95 2398.45l145.68 8.79M224.06 2567.6l-54.2-134"/><path class="cls-7" d="M276.48 2575l-52.06-5a150 150 0 01-34 21c-54.76 24.46-113 13.31-130-24.9s18.18-87.94 72.93-112.4 112.43-8.8 125.33 23.82a61.86 61.86 0 014.61 19l57.24 4.3 58.37-77.25-276.42-28.84-159.8 234.39 277.58 28.37z"/><path class="cls-8" d="M216.2 2221.37a147.55 147.55 0 00-30.56-16.72l-72 100.51a173.16 173.16 0 0028.87 25.78c46.07 32.76 96.45 31.3 117.62 5.29 23.74-29.23 2.14-82.1-43.93-114.86zM-103.54 2391.28l126 8.09c4.3-7.35 4.33-8.2 5-18.41 3.44-53.88-22.6-101.07-59.84-102.76s-66 42-70.49 90.71c-.73 8.38-.2 16.33-.67 22.37z"/><path class="cls-9" d="M215.26 2562.43l-57.88-117.73a128.31 128.31 0 00-37.07 14c-48.9 27.58-77.23 77-57.71 111.14s107.14 30.97 152.66-7.41z"/><path class="cls-2" d="M101.06 2394.36l-11.28-24.3-.29.6zM1233.4 2972.56c-27.78 200.79-28.38 188.28-34.1 224.4-3-4.36-11.15-25.33-10.56-31.1 1.31-12.25 3.57-32.7 10.2-67.48l-99-75.48-187.37 79-83.15 531.71S981.94 3761 983.77 3751.88c4.53-2 174.73-70.34 232.08-96.38-12.22 28.93-31.85 50.44-56.36 59.95-9.56 3.71-13.19 5.11-20 49.68-3.28 21.49-7.75 56.11-13.49 102.76L1283.36 3993l504.94-201.31 22.7-215.47L1593.5 3439s7.77-.81 29.09 2.13c25.39 3.46 81 53 81 53l118.39-52 38.34-202-433.61-346.42-193.31 78.92m186.46-30.63c18 14.44 380.21 303.82 398.05 318.07-1.1 6.87-5.08 31.9-5.08 31.9s2.39-1 2.83-1.14c-7.63 42.81-20.41 114.61-23.15 130-14.12 6-57.14 24-76.68 32.21a152.72 152.72 0 00-17.17-17.7c-27.94-24.68-71.14-32.72-118.52-22l-41.81 9.42 241 198.73c-3.22 19.16-21.5 128.36-24.66 147.14l-2.31.9s-.4 2.21-.71 4L1480.19 3877l-105.1 41.57-84.78 35.82c-9-7.15-105.26-83.86-120.62-96.14 4.18-33.35 8.81-67.75 12.24-90.46 1.15-7.61 2.16-13.63 3-18.12 43.7-21.71 74.82-68.58 83.94-128.45 0-.16 5.79-38.67 5.79-38.67l-283 128.71c-6.17-4.68-22.2-16.77-22.2-16.77s-.45 2.14-.51 2.52c-30.87-24.16-82.21-64.28-95.23-74.44 3.56-22.69 73.38-469.47 76.75-491.07 17.5-7.4 125.71-53 143.65-60.54 14 10.4 61.77 46.08 72.44 54-2.1 17.25-8.62 71.78-8.62 71.78l1.71 4.77c9.2 25.07 26.57 48.12 51.63 68.45l28.32 23s41.06-260.41 44.43-281.82c9-3.66 26-10.53 26-10.53s-5.81-4.59-11.09-8.81z"/><path class="cls-2" d="M1095.43 3048.61l91.85 63.4-21.06 175.44 51.7-5.46 45.63-289.35 165.93-67.12L1839 3247.69l-35.5 176.9-242-12.22 238.9 197-31.83 175.95L1282.24 3971l-124.93-100.41 133-276.28L987.41 3732l-137.93-104 85.9-516z"/><path class="cls-3" d="M1288.16 3973.92l472.66-199.82 28.68-164.62-84 15.87a281.23 281.23 0 01-39 63.83c-70.54 87.21-177.06 118-238 68.8s-44.32-162 26.22-249.28 180-110.08 229.19-66.64c9.34 8.23 17.62 17.19 23.83 27.76l102.64-43.06 28.62-179.07-417.31-333.4-165.42 68.26 63.53 50.44a280.79 280.79 0 0174.77 1.17c111 16.49 196.38 93.51 180.12 170.09-14.51 68.24-102.75 119.11-213.73 102.64s-199.64-84.85-188.12-162.31a101.21 101.21 0 0111.83-34.63l-89.23-66.52-165.52 69.75-84.3 514.28 135 107.37s20.27-100.58 17.54-104.74c-10.64-16.17-20.59-33.07-27.58-52.68-33.94-95.7-16.92-202.5 56.12-230.74s164.35 38.75 204.83 143.4 7 213.18-66.08 241.42c-3.61 1.41-19.7 132.35-19.7 132.35l135 107.63z"/><path class="cls-2" d="M998.19 3630.09l250.37-109M1702 3627l-204.1-177.46"/><path d="M1795.71 3594.86l-91 35.93a280.53 280.53 0 01-39 63.83c-70.55 87.25-177.06 118.05-238 68.83s-44.31-162.06 26.23-249.31 180-110.08 229.18-66.64c9.34 8.26 17.62 17.2 23.83 27.8l99.1-41.43 31.77-178.32L1352.46 3442l-67.54 526.45 486.91-188.26z" stroke-width="8.1" stroke="#01a0c6" fill="#006b84"/><path class="cls-11" d="M1395.09 3056.35a276.55 276.55 0 00-65.14-2l-34.75 228.7a324 324 0 0070 18.49c104.62 15.54 187.4-29.67 200.61-91 14.83-68.78-66.09-138.66-170.72-154.19zM1006.14 3611l217-93.48c.94-15.89.26-17.34-7.29-34.93-40-92.76-123.45-149.36-187-120.57s-74.4 126.06-40.57 211.08c5.89 14.62 13.52 27.43 17.86 37.9z"/><path d="M1683 3625.84l-196.42-147.19a239.67 239.67 0 00-50 54.72c-58.14 87.49-63.42 194-1.91 234.3s204.96-39.2 248.33-141.83z" stroke-width="8.1" stroke="#01a0c6" fill="#01a0c6"/><path class="cls-2" d="M1349.92 3442.51l-39.43-31v1.25zM-187.61 3880.67c42.09 171 37.59 161.1 44.58 192.1-3.84-2.55-17.14-16.87-18.52-21.71-2.88-10.31-7.63-27.55-13.44-57.75l-104.15-29.13-125.87 124 103.73 455.9s164 53.88 162.59 45.9c3-3.1 118.44-112.92 156.36-152.38-.56 27.29-9.5 51-26.23 66.51-6.52 6.06-9 8.36-.15 46.52 4.25 18.4 11.77 47.78 22.12 87.28l167.2 50.44 342.9-324.75-50.91-181.26-219.67-40.9s6-3.15 24.16-7.63c21.61-5.37 82.42 16.75 82.42 16.75l78.86-80-34-175.41-461.32-140.3-130.68 125.82m140.67-84.62c19.2 5.86 404.53 123.07 423.51 128.84 1.32 5.9 6.15 27.38 6.15 27.38s1.61-1.56 1.92-1.83c7.6 37 20.35 99.07 23.08 112.38-9.48 9.35-38.41 37.73-51.55 50.64a133.64 133.64 0 00-19.54-8.78c-30.48-10.94-67.94-3.54-102.74 20.31l-30.73 21 258.37 83c3.56 16.5 23.9 110.52 27.38 126.7l-1.57 1.47s.38 1.91.72 3.47l-185.81 170.82-71.48 67.33s-47.28 46.65-56.93 56.15c-9.53-2.89-111.91-33.87-128.25-38.84-7.35-28.27-14.66-57.52-19.19-77-1.51-6.51-2.64-11.69-3.43-15.57 28.3-31.57 38.36-79.41 26.49-130.66-.06-.13-7.76-33.08-7.76-33.08l-187 194.82-23.31-6.4s.32 1.87.4 2.19c-32.68-9.58-87-25.46-100.79-29.48-4.42-19.46-91.62-402.54-95.85-421.06 11.75-11.59 84.45-83.16 96.51-95 14.62 3.9 64.66 17.34 75.83 20.33 3.85 14.6 16.1 60.72 16.1 60.72l2.92 3.3c15.48 17.28 36.91 30.3 63.67 38.66l30.26 9.47s-50.54-223.4-54.7-241.76c6.09-5.85 17.61-16.86 17.61-16.86s-6.16-1.84-11.78-3.55c26.04-25.3 70.99-68.9 81.51-79.11z"/><path class="cls-2" d="M-274.54 3986.4l94.51 21.66 39.37 148.38 40-21-56.14-248.23 112.36-107.5 434.1 128.47 28.19 154.2-199.26 67.89 256.15 82.28 30.84 152.25-332.96 306.07L39.51 4630l18.63-265.8-200.27 208.57-144.75-39.63-96.47-444.14z"/><path class="cls-3" d="M178.36 4671.37l317.31-313.18-29.74-142.09-62.68 39.79a244.3 244.3 0 01-11 64.06c-28.92 93.06-105 152.18-170 132s-87.84-116.55-58.94-209.65S273.3 4095.6 327 4114.87c10.19 3.64 19.75 8.21 28.16 14.75l69-67.74-34.49-153.72-444-135-111.6 108.25 67.5 20.3a244.14 244.14 0 0160.72-23.08c94.87-22.37 188.56 12.37 200.04 79.37 10.22 59.75-44.66 129.17-139.54 151.53s-188.41-4.34-204-70.57a87.79 87.79 0 01-1.58-31.75l-93.4-25-111.2 109.48 97.21 442.22 143.49 43.28s-16-87.7-19.5-90.18c-13.78-9.64-27.25-20.08-39.19-33.67-58.14-66.33-78.72-158-28.84-204.28S-89.11 4227.53-22.8 4299s74.11 169.83 24.23 216.1c-2.46 2.3 26.62 113.16 26.62 113.16l143.59 43.49z"/><path class="cls-2" d="M-166.19 4487L.9 4318.59M400.94 4258.35l-221.77-77.67"/><path d="M466.24 4202.31l-61.91 58.24a243.54 243.54 0 01-11 64.05c-28.9 93.1-105 152.18-170 132s-87.78-116.55-58.87-209.6S274.39 4100.26 328 4119.53c10.19 3.66 19.75 8.21 28.16 14.78l66.72-65.31-31.65-154.16-331.88 306.52L174 4668l332.54-308.42z" stroke-width="7.04" stroke="#01a0c6" fill="#006b84"/><path d="M-30.17 3896.35a239.56 239.56 0 00-53.21 19.36l45.43 195.76a281.24 281.24 0 0062.45-7.56c89.44-21.08 141.73-84.17 132.69-137.92-10.19-60.32-97.91-90.72-187.36-69.64z" stroke-width="7.04" stroke="#006b84" fill="#01a0c6"/><path d="M385.19 4263.54l-205.85-55.69a208.23 208.23 0 00-22.75 60.22c-18.81 89.3 11.13 176.94 73.74 189.74s152.86-97.5 154.86-194.27z" stroke-width="7.04" stroke="#01a0c6" fill="#01a0c6"/><path class="cls-2" d="M57.45 4222.58l-41.77-12.32.42 1zM1423.69 4543.85c89.1 61.63 83 58.91 98.85 70.34-2.81.39-14.77-.79-17.38-2.46-5.53-3.57-14.75-9.58-29.74-21.12l-59.86 29-7.46 108.43 233.65 167.77s97.55-42.05 93.62-45.13c.12-2.66 8.54-100.32 9.93-133.95 10.86 12.8 16.39 27.35 15 41.34-.53 5.45-.74 7.52 18.9 21.49 9.46 6.74 24.9 17.22 45.77 31.2l97.6-44.93 25.6-289.41-97.33-62.74-117.84 70.73s1.49-3.9 8-13.36c7.77-11.29 44.8-25.88 44.8-25.88l3.73-69-87.16-67-269.75 123.42-8.92 111.24m30.32-96.33l247.65-113.29c3 2.19 14 10.11 14 10.11s.1-1.37.13-1.62l56.45 42.37c-.56 8.17-2.32 33-3.11 44.34a82.72 82.72 0 00-12.58 3.92c-18.5 7.39-32.75 26.07-39.06 51.25l-5.58 22.21 152.87-67.09 64.26 47.21c0 .45-.12 1.32-.12 1.32s1 .73 1.75 1.31c-1.21 11.63-16 154.45-16 154.45l-5.48 60.16s-2.77 40.77-3.34 49.08c-5.57 2.55-65.37 30-74.93 34.39-14.9-10-30.2-20.53-40.21-27.64-3.35-2.38-6-4.31-7.93-5.78.17-26.08-14.69-52.22-41.06-71-.08 0-17.06-12.07-17.06-12.07s-6.26 153.81-6.76 166c-3.72 1.81-13.35 6.55-13.35 6.55l1.08.85-58.46 27.5c-10-7.17-206.3-148.12-215.8-154.93.69-10.13 5-72.74 5.72-83.12l43.23-21.54 32.17 21.4 2.69.34c14.18 1.65 29.36-1.09 45.1-8.14l17.8-8-123.77-89.04c.42-5.18 1.25-14.94 1.25-14.94s-3.59 1.66-6.88 3.16c1.7-22.3 4.63-60.71 5.31-69.7z"/><path class="cls-2" d="M1426.74 4628l52.37-28.55 78.63 52.32 9.85-26-127.06-91.48 8-95.34 252.38-117.77 75.85 59.55-64.13 112.51 151.56-66.51 76.28 57.58-28.63 276.75-78 35.42-99.76-130-7.25 177.73-82.85 40.75-225.49-165.29z"/><path class="cls-3" d="M1914.64 4759l18.53-273.64-71.63-53.36-12.65 43.89a150.42 150.42 0 0121 34c24.62 54.67 13.67 112.92-24.5 130.11s-88-17.89-112.62-72.57-9.15-112.4 23.42-125.4a61.79 61.79 0 0119-4.68l4.19-59.34-78.56-56.77L1441.26 4440l-7.29 95.37 39.37-18.16a150.21 150.21 0 0118.57-35.39c34.61-49 91.93-71.16 124.55-45 29.06 23.37 32.07 77.73-2.52 126.71s-88.59 74.8-122.76 50.64a53.75 53.75 0 01-13.67-14l-53.24 26.54-6.6 95.78 225.06 164.12 83.75-38.55s-43.1-33.91-45.74-33.61c-10.28 1.19-20.74 1.87-31.78.47-53.84-6.86-100.69-40.71-96.57-82.36s58.08-69.08 117.77-63.18 103.38 48 99.26 89.69c-.2 2.06 58.4 41.29 58.4 41.29l83.88-38.5z"/><path class="cls-8" d="M1502.62 4486.89a147.59 147.59 0 00-16.62 30.61l100.73 71.68a172.79 172.79 0 0025.69-28.94c32.62-46.17 31-96.56 4.92-117.64-29.27-23.6-82.1-1.88-114.72 44.29zM1673.54 4806.1l7.69-126.06c-7.36-4.28-8.21-4.3-18.42-4.94-53.89-3.27-101 22.92-102.57 60.16s42.22 65.86 90.93 70.21c8.38.73 16.33.17 22.37.63z"/></svg>